<svg width="40" height="41" viewBox="0 0 40 41" fill="none" xmlns="http://www.w3.org/2000/svg">
<ellipse cx="19.6705" cy="20.4743" rx="19.6705" ry="20.4743" fill="#FFD580" fill-opacity="0.6"/>
<mask id="mask0_116_617" style="mask-type:alpha" maskUnits="userSpaceOnUse" x="7" y="8" width="24" height="24">
<rect x="7" y="8" width="24" height="24" fill="#D9D9D9"/>
</mask>
<g mask="url(#mask0_116_617)">
<path d="M26.675 28.3557L27.298 27.7327L25.4423 25.877V23.1155H24.5577V26.2385L26.675 28.3557ZM12.3077 28.5C11.8091 28.5 11.3831 28.3234 11.0298 27.9703C10.6766 27.6169 10.5 27.1909 10.5 26.6923V13.3077C10.5 12.8091 10.6766 12.3831 11.0298 12.0298C11.3831 11.6766 11.8091 11.5 12.3077 11.5H25.6923C26.1909 11.5 26.6169 11.6766 26.9703 12.0298C27.3234 12.3831 27.5 12.8091 27.5 13.3077V19.6328C27.2538 19.5276 27.0073 19.4385 26.7605 19.3655C26.5137 19.2923 26.2602 19.234 26 19.1905V13.3077C26 13.2307 25.9679 13.1602 25.9038 13.0962C25.8398 13.0321 25.7692 13 25.6923 13H12.3077C12.2307 13 12.1603 13.0321 12.0963 13.0962C12.0321 13.1602 12 13.2307 12 13.3077V26.6923C12 26.7692 12.0321 26.8398 12.0963 26.9038C12.1603 26.9679 12.2307 27 12.3077 27H18.1655C18.2027 27.2768 18.2578 27.5387 18.3308 27.7855C18.4039 28.0323 18.493 28.2705 18.598 28.5H12.3077ZM12 27V13V19.1905V19.1155V27ZM14.25 24.6345H18.2673C18.3109 24.3743 18.3757 24.1208 18.4615 23.874C18.5475 23.6272 18.6411 23.3808 18.7423 23.1348H14.25V24.6345ZM14.25 20.75H20.5905C21.0212 20.3847 21.4808 20.0786 21.9693 19.8317C22.4578 19.5849 22.9808 19.4096 23.5385 19.3058V19.25H14.25V20.75ZM14.25 16.8652H23.75V15.3655H14.25V16.8652ZM25 30.5578C23.7513 30.5578 22.6892 30.1199 21.8135 29.2443C20.9378 28.3686 20.5 27.3064 20.5 26.0577C20.5 24.8091 20.9378 23.7469 21.8135 22.8713C22.6892 21.9956 23.7513 21.5577 25 21.5577C26.2487 21.5577 27.3108 21.9956 28.1865 22.8713C29.0622 23.7469 29.5 24.8091 29.5 26.0577C29.5 27.3064 29.0622 28.3686 28.1865 29.2443C27.3108 30.1199 26.2487 30.5578 25 30.5578Z" fill="#AD8A45"/>
</g>
</svg>
